<?xml version="1.0" ?><svg viewBox="0 0 256 256" xmlns="http://www.w3.org/2000/svg"><rect fill="none" height="256" width="256"/><path d="M208,128v16a80,80,0,0,1-160,0V128Z" opacity="0.2"/><circle cx="155.9" cy="92" r="12"/><circle cx="99.9" cy="92" r="12"/><line fill="none" stroke="#000" stroke-linecap="round" stroke-linejoin="round" stroke-width="16" x1="128" x2="128" y1="128" y2="224"/><line fill="none" stroke="#000" stroke-linecap="round" stroke-linejoin="round" stroke-width="16" x1="244" x2="12" y1="128" y2="128"/><path d="M208,144a80,80,0,0,1-160,0V112a80,80,0,0,1,160,0Z" fill="none" stroke="#000" stroke-linecap="round" stroke-linejoin="round" stroke-width="16"/><line fill="none" stroke="#000" stroke-linecap="round" stroke-linejoin="round" stroke-width="16" x1="231.9" x2="203.2" y1="188" y2="171.4"/><line fill="none" stroke="#000" stroke-linecap="round" stroke-linejoin="round" stroke-width="16" x1="231.9" x2="203.2" y1="68" y2="84.6"/><line fill="none" stroke="#000" stroke-linecap="round" stroke-linejoin="round" stroke-width="16" x1="24.1" x2="52.8" y1="68" y2="84.6"/><line fill="none" stroke="#000" stroke-linecap="round" stroke-linejoin="round" stroke-width="16" x1="24.1" x2="52.8" y1="188" y2="171.4"/></svg>