<?xml version="1.0" encoding="UTF-8"?>
<svg id="Layer_1" data-name="Layer 1" xmlns="http://www.w3.org/2000/svg" viewBox="0 0 1080 1080">
  <defs>
    <style>
      .cls-1 {
        fill: #fff;
      }

      .cls-2 {
        fill: #38bdf8;
      }

      .cls-3 {
        fill: #1c5ca6;
      }
    </style>
  </defs>
  <rect class="cls-1" width="1080" height="1080" rx="86.48" ry="86.48"/>
  <path class="cls-2" d="m693.79,1007.9c-6.6-4.37-9.55-12.27-7.8-19.83l10.77-47.72c-4.93-5.11-9.6-10.61-13.9-16.45-4.3-5.85-8.13-11.92-11.51-18.1l-50.18-5.87c-7.96-.88-14.71-6.18-16.81-13.64-2.85-10.22-4.82-20.54-6.03-30.97l-.74-7.78c-.86-10.67-.85-21.32-.05-31.9.55-7.75,6.25-14.12,13.84-16.47l48.06-14.88c4.28-13.48,10.4-26.48,18.27-38.54l-19.76-44.88c-3.14-7.16-1.82-15.44,3.91-20.9,8.56-8.23,17.96-15.91,28.16-22.92s20.8-13.05,31.66-18.16c7.23-3.43,15.75-1.91,21.71,3.31l37.35,32.8c14.37-3.21,29.09-4.52,43.67-3.99l30.23-38.98c4.79-6.16,12.94-9.19,20.65-7.21,10.6,2.75,21.01,6.25,31.16,10.54l7.36,3.24c9.79,4.53,19.23,9.73,28.27,15.69,6.6,4.37,9.55,12.27,7.8,19.83l-10.77,47.72c4.98,5.18,9.65,10.67,13.95,16.52,4.3,5.85,8.13,11.92,11.51,18.1l50.18,5.87c7.96.88,14.71,6.18,16.81,13.64,2.85,10.22,4.82,20.54,6.03,30.97l.74,7.78c.86,10.67.85,21.32.05,31.9-.55,7.75-6.25,14.12-13.84,16.47l-48.06,14.88c-4.28,13.48-10.4,26.48-18.27,38.54l19.76,44.88c3.14,7.16,1.82,15.44-3.91,20.9-8.51,8.3-17.91,15.98-28.11,22.99-10.21,7.01-20.8,13.05-31.66,18.16-7.23,3.43-15.75,1.91-21.71-3.31l-37.35-32.8c-14.37,3.21-29.09,4.52-43.67,3.99l-30.35,38.96c-4.79,6.16-12.94,9.19-20.65,7.21-10.6-2.75-21.01-6.25-31.16-10.54l-7.36-3.24c-9.79-4.53-19.23-9.73-28.27-15.69l.02-.12Zm84.14-231.16c-31.1,21.35-38.4,63.02-16.3,93.08,22.1,30.05,65.22,37.1,96.32,15.75,31.1-21.35,38.4-63.02,16.3-93.08-22.1-30.05-65.22-37.1-96.32-15.75Z"/>
  <path class="cls-3" d="m226.16,299.66V60.09s49.28-38.65,133.58-6.07c84.3,32.58,153.03,37.09,175.08,35.46,22.05-1.62,158.22-19.17,207.5-36.72,49.28-17.55,78.76,5.22,84.3,13.79,12.97,20.05,0,222.52,0,222.52,0,0,555.15,157.39-154.33,350.21-41.5,11.28-440.13,111.54-599.16-107.78-124.5-171.69,153.03-231.85,153.03-231.85Z"/>
  <path class="cls-1" d="m238.67,404.13c55.49,28.2,288.78,130.46,564,17.15,7.05-2.9,14.87,2.12,14.87,9.52h0c0,3.02-1.36,5.89-3.73,7.85-31.3,25.88-257.04,195.22-587.65-3.2-4.99-2.99-4.5-14.17-3.04-23.64,1.08-7.06,9.02-10.99,15.55-7.68Z"/>
  <path class="cls-3" d="m734.03,748.24c-6.45,29.09-45.15,101.8-45.15,101.8,0,0-23.65,56.09-118.25,58.17-6.45,0-21.5-2.08-21.5-2.08,0,0-68.8-4.16-101.05-95.57,0,0-8.6-29.09-23.07-33.14-.02,0-.02-.04-.04-.1,0,0-1.48.62-1.53.62-14.47,4.05-23.07,33.14-23.07,33.14-32.25,91.41-101.05,95.57-101.05,95.57,0,0-15.05,2.08-21.5,2.08-94.6-2.08-118.25-58.17-118.25-58.17,0,0-38.7-72.71-45.15-101.8-6.45-29.09,6.45-37.4,6.45-37.4,0,0,23.65-16.62,105.35-10.39,81.7,6.23,178.44,35.32,187.34,37.4,2.28.54,6.39,1.31,8.71,1.75l2.15-.19s7.14-1.31,10.45-2.08c8.9-2.08,105.65-31.16,187.34-37.4,81.7-6.23,105.35,10.39,105.35,10.39,0,0,12.9,8.31,6.45,37.4Z"/>
  <path class="cls-2" d="m321.96,1019.6c7.68,4.72,16.03,8.43,24.52,11.43,7.37,2.6,14.98,4.47,22.69,5.72,17.42,2.83,34.84,3.26,52.39,1.46,18.77-1.93,37.25-5.6,55.62-9.82,17.53-4.03,35.02-8.21,52.53-12.33s35.07-8.25,52.61-12.37c2.22-.52,4.45-1.05,6.67-1.57,3.94-.93,7.84-4.14,9.86-7.58s2.95-8.75,1.66-12.71-3.77-7.84-7.58-9.86c-4.01-2.12-8.25-2.71-12.71-1.66-20.33,4.78-40.67,9.56-61,14.34-20.06,4.72-40.08,9.63-60.2,14.04-11.17,2.45-22.41,4.63-33.75,6.16l4.39-.59c-17.3,2.3-34.82,2.99-52.16.67l4.39.59c-11.28-1.54-22.39-4.33-32.91-8.73l3.94,1.66c-4.94-2.09-9.72-4.53-14.29-7.34-3.6-2.21-8.68-2.78-12.71-1.66-3.83,1.05-7.98,4.01-9.86,7.58-2.02,3.83-3.04,8.47-1.66,12.71s3.82,7.55,7.58,9.86h0Z"/>
</svg>