<?xml version="1.0" encoding="UTF-8"?>
<svg id="Layer_1" data-name="Layer 1" xmlns="http://www.w3.org/2000/svg" viewBox="0 0 1080 1080">
  <defs>
    <style>
      .cls-1 {
        fill: #fff;
      }

      .cls-2 {
        fill: #38bdf8;
      }

      .cls-3 {
        fill: #1c5ca6;
      }
    </style>
  </defs>
  <path class="cls-2" d="m706.43,1046.39c-7.15-4.73-10.34-13.28-8.44-21.45l11.66-51.65c-5.33-5.53-10.39-11.48-15.04-17.81-4.65-6.33-8.8-12.9-12.45-19.58l-54.3-6.36c-8.61-.96-15.92-6.68-18.19-14.76-3.09-11.06-5.22-22.22-6.53-33.51l-.8-8.42c-.93-11.55-.92-23.07-.05-34.52.6-8.39,6.76-15.28,14.98-17.82l52.01-16.1c4.63-14.59,11.25-28.66,19.77-41.71l-21.38-48.57c-3.4-7.74-1.97-16.7,4.23-22.62,9.27-8.91,19.43-17.22,30.48-24.8,11.04-7.58,22.51-14.13,34.27-19.65,7.82-3.71,17.05-2.07,23.5,3.58l40.42,35.49c15.55-3.48,31.48-4.89,47.26-4.31l32.72-42.18c5.19-6.66,14.01-9.95,22.34-7.81,11.47,2.98,22.74,6.76,33.72,11.41l7.96,3.5c10.6,4.91,20.81,10.53,30.6,16.98,7.15,4.73,10.34,13.28,8.44,21.45l-11.66,51.65c5.38,5.61,10.44,11.55,15.1,17.88,4.65,6.33,8.8,12.9,12.45,19.58l54.3,6.36c8.61.96,15.92,6.68,18.19,14.76,3.09,11.06,5.22,22.22,6.53,33.51l.8,8.42c.93,11.55.92,23.07.05,34.52-.6,8.39-6.76,15.28-14.98,17.82l-52.01,16.1c-4.63,14.59-11.25,28.66-19.77,41.71l21.38,48.57c3.4,7.74,1.97,16.7-4.23,22.62-9.21,8.98-19.38,17.29-30.42,24.88-11.04,7.58-22.51,14.13-34.27,19.65-7.82,3.71-17.05,2.07-23.5-3.58l-40.42-35.49c-15.55,3.48-31.48,4.89-47.26,4.31l-32.85,42.16c-5.19,6.66-14.01,9.95-22.34,7.81-11.47-2.98-22.74-6.76-33.72-11.41l-7.96-3.5c-10.6-4.91-20.81-10.53-30.6-16.98l.02-.13Zm91.05-250.15c-33.65,23.11-41.55,68.2-17.64,100.72,23.91,32.52,70.58,40.15,104.23,17.05,33.65-23.11,41.55-68.2,17.64-100.72s-70.58-40.15-104.23-17.05Z"/>
  <path class="cls-3" d="m200.37,279.95V20.7s53.33-41.82,144.56-6.56c91.22,35.26,165.61,40.13,189.47,38.38,23.86-1.76,171.22-20.74,224.55-39.73,53.33-18.99,85.23,5.65,91.22,14.92,14.03,21.7,0,240.8,0,240.8,0,0,600.76,170.32-167.01,378.98-44.91,12.21-476.29,120.71-648.39-116.63-134.73-185.8,165.61-250.9,165.61-250.9Z"/>
  <path class="cls-1" d="m213.91,393c60.05,30.52,312.51,141.18,610.34,18.55,7.63-3.14,16.09,2.29,16.09,10.3h0c0,3.27-1.47,6.37-4.04,8.49-33.88,28.01-278.16,211.26-635.93-3.46-5.4-3.24-4.86-15.34-3.29-25.59,1.17-7.63,9.76-11.9,16.83-8.31Z"/>
  <path class="cls-3" d="m749.97,765.39c-6.98,31.48-48.86,110.16-48.86,110.16,0,0-25.59,60.7-127.96,62.95-6.98,0-23.27-2.25-23.27-2.25,0,0-74.45-4.5-109.35-103.42,0,0-9.31-31.48-24.96-35.86-.02,0-.02-.05-.05-.11,0,0-1.61.67-1.65.67-15.66,4.38-24.96,35.86-24.96,35.86-34.9,98.92-109.35,103.42-109.35,103.42,0,0-16.29,2.25-23.27,2.25-102.37-2.25-127.96-62.95-127.96-62.95,0,0-41.88-78.69-48.86-110.16-6.98-31.48,6.98-40.47,6.98-40.47,0,0,25.59-17.99,114-11.24,88.41,6.74,193.1,38.22,202.74,40.47,2.47.58,6.91,1.42,9.42,1.89l2.33-.2s7.72-1.42,11.31-2.25c9.63-2.25,114.33-33.72,202.74-40.47,88.41-6.74,114,11.24,114,11.24,0,0,13.96,8.99,6.98,40.47Z"/>
  <path class="cls-2" d="m304.73,1057.88c8.22,5.05,17.13,9.02,26.21,12.23,7.97,2.82,16.22,4.84,24.56,6.19,18.72,3.04,37.47,3.47,56.33,1.53,20.19-2.08,40.07-6.04,59.83-10.58,18.97-4.36,37.9-8.89,56.84-13.34s37.95-8.92,56.93-13.39c2.41-.57,4.81-1.13,7.22-1.7,3.94-.93,7.84-4.14,9.86-7.58s2.95-8.75,1.66-12.71-3.77-7.84-7.58-9.86c-4.01-2.12-8.25-2.71-12.71-1.66-22.01,5.17-44.01,10.35-66.02,15.52s-43.37,10.42-65.15,15.19c-12.09,2.65-24.25,5.01-36.53,6.66l4.39-.59c-18.72,2.49-37.68,3.24-56.44.73l4.39.59c-12.21-1.67-24.23-4.68-35.61-9.45l3.94,1.66c-5.35-2.26-10.52-4.9-15.46-7.94-3.6-2.21-8.68-2.78-12.71-1.66-3.83,1.05-7.98,4.01-9.86,7.58-2.02,3.83-3.04,8.47-1.66,12.71s3.82,7.55,7.58,9.86h0Z"/>
</svg>